<svg width="124" height="50" viewBox="0 0 124 50" fill="none" xmlns="http://www.w3.org/2000/svg">
<g clip-path="url(#clip0_3120_12144)">
<rect x="0.242676" y="6.79614" width="36.4078" height="36.4078" rx="18.2039" fill="#8D75F5"/>
<path d="M27.3192 26.6299C27.3192 27.9179 27.0614 29.0262 26.5734 29.8355C25.947 30.8749 24.9733 31.4249 23.7579 31.4249C21.4381 31.4249 19.8785 28.5145 18.2279 25.4337C17.0286 23.1956 15.5402 20.4108 14.3164 20.4108C13.7267 20.4108 13.0039 21.1274 12.4302 22.2809C11.7741 23.6377 11.4257 25.1228 11.4099 26.6299C11.4099 27.5707 11.5812 28.3723 11.8918 28.8878C12.1801 29.3666 12.5756 29.5892 13.1354 29.5892C14.1871 29.5892 15.4782 27.3711 15.9027 26.6452C16.0254 26.4348 16.2265 26.2818 16.462 26.2198C16.6975 26.1577 16.9479 26.1918 17.1583 26.3144C17.3686 26.437 17.5217 26.6382 17.5837 26.8737C17.6457 27.1091 17.6117 27.3596 17.4891 27.5699C16.8076 28.7387 16.2248 29.5586 15.6534 30.1537C14.8327 31.0088 14.0105 31.4249 13.1354 31.4249C11.9201 31.4249 10.9464 30.8749 10.32 29.8355C9.83198 29.0262 9.57422 27.9179 9.57422 26.6299C9.57422 23.2668 11.3778 18.5751 14.3164 18.5751C16.6363 18.5751 18.1958 21.4854 19.8464 24.5663C21.0473 26.8043 22.5365 29.5892 23.7579 29.5892C24.3178 29.5892 24.7133 29.3666 25.0016 28.8878C25.3122 28.3723 25.4835 27.5707 25.4835 26.6299C25.468 25.1228 25.1198 23.6378 24.4639 22.2809C23.8903 21.1274 23.1675 20.4108 22.577 20.4108C22.1395 20.4108 21.6125 20.7932 21.0098 21.5451C20.8576 21.7351 20.6362 21.857 20.3942 21.8838C20.1522 21.9106 19.9095 21.8402 19.7194 21.6881C19.5294 21.5359 19.4075 21.3145 19.3807 21.0725C19.3539 20.8306 19.4243 20.5878 19.5764 20.3978C20.5593 19.1717 21.5406 18.5751 22.577 18.5751C23.927 18.5751 25.1775 19.6008 26.1069 21.4632C26.8864 23.0752 27.3004 24.8394 27.3192 26.6299Z" fill="white"/>
<path d="M58.0391 35.3223V15.8248H61.0473V35.3223H58.0391ZM45.3101 35.3223V15.8248H48.3182V35.3223H45.3101ZM46.6192 27.0498V24.153H59.3761V27.0498H46.6192Z" fill="#16151C"/>
<path d="M66.4995 35.3223V15.8248H74.7998C75.914 15.8248 76.9353 16.1033 77.8637 16.6604C78.8107 17.1989 79.5628 17.9417 80.1198 18.8887C80.6769 19.8171 80.9555 20.8663 80.9555 22.0361C80.9555 23.0946 80.6769 24.0787 80.1198 24.9886C79.5628 25.8985 78.82 26.632 77.8916 27.1891C76.9631 27.7276 75.9325 27.9968 74.7998 27.9968H69.5076V35.3223H66.4995ZM78.0865 35.3223L73.1286 26.5206L76.2203 25.8242L81.7354 35.3502L78.0865 35.3223ZM69.5076 25.1H75.0784C75.6169 25.1 76.0997 24.9701 76.5267 24.7101C76.9538 24.4316 77.2881 24.0602 77.5295 23.5959C77.7709 23.1132 77.8916 22.5839 77.8916 22.0083C77.8916 21.3584 77.7337 20.792 77.4181 20.3092C77.1209 19.8079 76.6939 19.4179 76.1368 19.1394C75.5983 18.8608 74.9855 18.7216 74.2985 18.7216H69.5076V25.1Z" fill="#16151C"/>
<path d="M85.8664 35.3223V15.8248H88.8189L95.9215 27.384L94.501 27.3562L101.687 15.8248H104.473V35.3223H101.464V27.3283C101.464 25.6571 101.502 24.153 101.576 22.816C101.669 21.4791 101.817 20.1514 102.021 18.833L102.411 19.8636L96.0329 29.7237H94.1946L88.0111 19.975L88.3175 18.833C88.5218 20.0771 88.661 21.3584 88.7353 22.6768C88.8282 23.9766 88.8746 25.5271 88.8746 27.3283V35.3223H85.8664Z" fill="#16151C"/>
<path d="M115.955 35.6008C114.897 35.6008 113.913 35.4616 113.003 35.183C112.112 34.9045 111.295 34.4867 110.552 33.9296C109.828 33.354 109.178 32.6484 108.602 31.8128L110.663 29.4452C111.573 30.745 112.446 31.6456 113.281 32.147C114.117 32.6484 115.111 32.899 116.262 32.899C116.967 32.899 117.608 32.7876 118.184 32.5648C118.759 32.342 119.214 32.0356 119.549 31.6456C119.883 31.2557 120.05 30.81 120.05 30.3087C120.05 29.9744 119.994 29.6587 119.883 29.3616C119.771 29.0645 119.595 28.7953 119.354 28.5539C119.131 28.3125 118.834 28.0897 118.462 27.8854C118.109 27.6811 117.692 27.5047 117.209 27.3562C116.726 27.1891 116.169 27.0498 115.538 26.9384C114.535 26.7341 113.662 26.4649 112.919 26.1306C112.177 25.7964 111.555 25.3786 111.053 24.8772C110.552 24.3758 110.18 23.8095 109.939 23.1781C109.698 22.5282 109.577 21.804 109.577 21.0056C109.577 20.2257 109.744 19.5015 110.078 18.833C110.431 18.1645 110.905 17.5889 111.499 17.1061C112.112 16.6047 112.827 16.224 113.644 15.9641C114.461 15.6855 115.343 15.5463 116.29 15.5463C117.292 15.5463 118.212 15.6762 119.047 15.9362C119.883 16.1962 120.626 16.5861 121.275 17.1061C121.925 17.6074 122.464 18.2295 122.891 18.9723L120.774 21.0613C120.403 20.4485 119.985 19.9378 119.521 19.5293C119.056 19.1022 118.546 18.7866 117.989 18.5823C117.432 18.3595 116.837 18.2481 116.206 18.2481C115.482 18.2481 114.851 18.3595 114.312 18.5823C113.774 18.8051 113.346 19.1208 113.031 19.5293C112.734 19.9193 112.585 20.3835 112.585 20.922C112.585 21.312 112.659 21.6741 112.808 22.0083C112.957 22.324 113.179 22.6118 113.476 22.8718C113.792 23.1132 114.21 23.336 114.73 23.5402C115.25 23.7259 115.872 23.8931 116.596 24.0416C117.617 24.2644 118.527 24.5523 119.326 24.9051C120.124 25.2393 120.802 25.6385 121.359 26.1028C121.916 26.567 122.334 27.0869 122.612 27.6626C122.91 28.2382 123.058 28.8603 123.058 29.5288C123.058 30.7729 122.77 31.8499 122.195 32.7598C121.619 33.6697 120.802 34.3753 119.744 34.8767C118.685 35.3594 117.422 35.6008 115.955 35.6008Z" fill="#16151C"/>
</g>
<defs>
<clipPath id="clip0_3120_12144">
<rect width="123.058" height="50" fill="white"/>
</clipPath>
</defs>
</svg>
